<?xml version="1.0" encoding="iso-8859-1"?>
<!-- Uploaded to: SVG Repo, www.svgrepo.com, Generator: SVG Repo Mixer Tools -->
<!DOCTYPE svg PUBLIC "-//W3C//DTD SVG 1.1//EN" "http://www.w3.org/Graphics/SVG/1.1/DTD/svg11.dtd">
<svg fill="#000000" height="800px" width="800px" version="1.1" id="Capa_1" xmlns="http://www.w3.org/2000/svg" xmlns:xlink="http://www.w3.org/1999/xlink" 
	 viewBox="0 0 456.308 456.308" xml:space="preserve">
<path d="M453.792,102.471c-0.042-1.814-1.064-3.464-2.67-4.31c-0.239-0.126-1.553-0.588-1.96-0.72
	c-22.73-7.398-41.849-7.063-56.968,0.938c-9.005-12.414-26.393-29.773-54.951-33.853c-0.089-0.195-0.184-0.389-0.271-0.585
	c-1.152-2.598-3.733-4.284-6.576-4.297c-2.814-0.025-5.3,1.577-6.51,4.058c-15.288,0.36-28.483,5.695-39.327,15.834
	c-8.769-9.416-23.276-19.833-46.166-23.648c-0.59-0.098-1.175-0.185-1.757-0.27c-0.756-1.367-1.476-2.76-2.124-4.163
	c-1.262-2.731-3.911-4.441-6.915-4.464c-0.02,0-0.04,0-0.06,0c-2.95,0-5.57,1.646-6.848,4.308c-0.592,1.231-1.294,2.504-2.063,3.786
	c-30.398,2.898-44.721,24.941-48.955,32.953c-0.315,0.026-0.625,0.055-0.934,0.083c-1.423-1.035-3.139-1.65-4.97-1.686
	c-2.877-0.024-5.521,1.277-7.198,3.518c-46.889,10.041-53.14,49.41-53.907,62.447c-17.659,1.628-31.789,8.258-42.03,19.741
	c-14.797,16.591-17.191,38.551-17.484,48.217c-1.404-2.414-2.085-3.991-2.103-4.034c-0.876-2.104-3.061-3.349-5.323-3.026
	c-2.257,0.322-4.01,2.131-4.261,4.397c-0.391,3.516-13.251,6.854-26.461,6.866c-1.517,0-2.951,0.688-3.9,1.871
	c-0.949,1.184-1.31,2.733-0.98,4.214l27.658,124.464c0.429,1.931,1.956,3.427,3.896,3.817l250.184,50.288
	c0.328,0.065,0.658,0.098,0.985,0.098c1.425,0,2.802-0.61,3.761-1.706l168.466-192.353c0.825-0.941,1.266-2.157,1.237-3.409
	L453.792,102.471z M278.053,398.253l-25.383-5.102l1.906-15.663c0.924-7.593,7.607-13.136,15.256-12.619l9.377,0.638
	L278.053,398.253z M205.386,289.353c-4.557-5.489-13.631-13.829-30.655-21.47c-0.452-0.203-1.358-0.58-2.575-1.086
	c-16.339-6.78-20.261-9.356-21.096-10.232c-0.048-0.06-0.091-0.125-0.138-0.186c33.108,1.631,48.593,21.094,54.882,32.56
	C205.664,289.078,205.52,289.218,205.386,289.353z M213.579,282.376c-8.247-14.084-27.556-36.173-67.32-36.103
	c-0.415-1.474-0.68-2.696-0.815-3.451c1.235-4.79,8.684-30.238,30.426-43.585c7.797-4.812,16.718-7.55,26.548-8.167
	c-5.403,7.832-12.123,15.285-12.219,15.392c-1.854,2.046-1.697,5.208,0.349,7.062c0.957,0.867,2.158,1.295,3.355,1.295
	c1.362,0,2.719-0.554,3.706-1.643c0.502-0.554,10.274-11.386,16.353-21.593c4.325,8.015,10.458,16.206,14.942,19.568
	c2.209,1.658,5.343,1.209,7-1s1.209-5.343-1-7c-1.886-1.415-5.075-5.134-8.183-9.751c20.806,4.736,35.766,12.677,44.577,23.653
	c-6.007,4.333-11.174,10.04-15.377,17.073c-7.053,11.805-12.287,24.62-15.629,38.128c-0.197,0.015-0.394,0.016-0.59,0.034
	C228.916,273.259,220.086,277.709,213.579,282.376z M228.385,131.093c7.967-5.141,18.478-7.813,31.244-7.941
	c2.25-0.027,4.572,0.014,6.915,0.101c-3.342,5.017-7.34,9.968-9.765,12.856c-1.775,2.115-1.5,5.27,0.615,7.045
	c0.937,0.786,2.078,1.17,3.212,1.17c1.426,0,2.843-0.607,3.832-1.785c3.832-4.565,9.027-11.154,12.766-17.434
	c2.669,4.964,6.049,10.008,9.423,14.043c1.771,2.118,4.925,2.398,7.043,0.628c2.118-1.771,2.399-4.925,0.628-7.044
	c-1.622-1.94-3.281-4.208-4.838-6.586c29.267,6.672,42.258,22.764,46.922,30.421c-16.154,8.349-24.802,20.189-29.381,29.731
	c-4.023,8.382-5.514,16.098-6.066,20.889c-7.586,0.363-14.61,1.977-20.903,4.808c-10.444-13.791-28.275-23.482-53.137-28.813
	c-2.227-0.474-4.389-0.862-6.472-1.173c-0.108-0.255-0.224-0.51-0.326-0.764c-1-2.478-3.369-4.077-6.034-4.077
	c-0.001,0-0.002,0-0.003,0c-1.917,0.001-3.67,0.842-4.874,2.234C208.385,168.309,209.01,143.558,228.385,131.093z M387.566,162.058
	c-1.709,0.715-3.485,1.527-5.342,2.456c-19.7,9.85-28.523,38.724-31.996,54.743c-9.321-5.1-23.821-11.35-39.241-11.844
	c1.485-10.899,8.843-38.067,45.204-47.761C365.37,157.206,377.231,158.788,387.566,162.058z M264.505,239.256
	c4.353-7.284,9.858-12.839,16.371-16.513c13.275-7.512,28.99-6.155,39.835-3.694c1.914,0.434,3.738,0.92,5.473,1.426
	c-1.405,0.656-2.84,1.39-4.311,2.22c-25.977,14.653-35.57,48.597-38.782,65.047c-10.797-8.667-21.695-13.742-32.57-15.19
	C253.64,260.776,258.326,249.598,264.505,239.256z M291.605,297.818c0.349-2.991,6.314-50.129,35.182-66.413
	c7.496-4.228,13.509-5.619,17.387-4.022c3.247,1.337,4.201,4.585,4.222,4.652c0.584,2.337,2.764,3.93,5.156,3.777
	c2.405-0.146,4.362-1.988,4.657-4.379c0.015-0.118,1.507-11.969,5.956-25.224c3.952-11.777,11.07-27.02,22.532-32.751
	c8.093-4.046,12.904-4.977,15.619-4.989c0.015,0.009,0.03,0.018,0.045,0.027c1.864,1.108,3.447,2.608,4.846,4.264
	c0.851,1.007,2.137,1.643,3.617,1.723c2.666,0.159,4.926-2.077,5.224-4.708c0.044-0.392,4.334-35.925,27.975-57.212l1.233,53.625
	l-155.378,180.6L291.605,297.818z M437.897,104.625c-19.237,16.901-27.105,41.336-30.104,54.627
	c-8.636-3.845-24.799-9.81-37.241-10.636c1.671-9.125,7.015-28.906,22.891-39.4C404.827,101.692,419.758,100.17,437.897,104.625z
	 M317.449,74.287c-4.307,5.955-8.771,10.887-8.84,10.965c-1.858,2.042-1.708,5.204,0.334,7.063c0.958,0.871,2.163,1.302,3.363,1.302
	c1.358,0,2.712-0.551,3.699-1.635c0.416-0.456,8.795-9.706,14.281-19.01c4.334,8.02,10.424,16.087,14.878,19.426
	c2.209,1.658,5.343,1.209,7-1c1.657-2.21,1.209-5.344-1-7c-1.694-1.27-4.433-4.375-7.235-8.356
	c19.271,4.993,31.971,16.918,39.92,27.845c-17.072,13.884-22.109,35.941-23.488,44.888c-2.317,0.246-4.578,0.638-6.745,1.216
	c-2.829,0.754-5.496,1.608-8.025,2.537c-5.505-9.519-22.106-31.251-61.433-37.611c-5.25-3.759-9.521-1.488-9.922-1.211
	c2.114-5.844,6.338-15.226,13.778-23.452C296.091,81.315,305.962,75.985,317.449,74.287z M210.266,66.772
	c-2.507,3.099-4.409,5.201-4.454,5.25c-1.857,2.042-1.708,5.204,0.334,7.063c0.958,0.872,2.163,1.302,3.363,1.302
	c1.358,0,2.712-0.551,3.699-1.635c0.405-0.445,8.796-9.707,14.281-19.006c4.348,8.055,10.426,16.083,14.878,19.422
	c2.208,1.657,5.343,1.21,7-1c1.657-2.209,1.209-5.344-1-7c-0.93-0.698-2.21-1.993-3.652-3.703
	c13.49,3.539,24.563,10.055,33.033,19.446c-7.968,10.006-12.104,20.638-13.897,26.258c-1.459-0.026-8.626,0.094-10.694,0.25
	c-9.515,0.719-17.9,2.857-25.05,6.375c-9.205-19.798-25.128-30.715-46.593-31.97C186.208,80.998,195.319,71.002,210.266,66.772z
	 M147.82,102.929c-4.184,5.424-7.979,9.63-8.043,9.7c-1.854,2.047-1.697,5.209,0.349,7.063c0.958,0.867,2.159,1.295,3.356,1.295
	c1.362,0,2.719-0.554,3.706-1.643c0.442-0.488,10.288-11.394,16.35-21.573c4.364,8.105,10.562,16.261,14.945,19.549
	c2.208,1.657,5.343,1.209,7-1s1.209-5.343-1-7c-2.245-1.684-5.987-6.224-9.383-11.589c21.173-0.665,36.101,8.537,44.442,27.383
	c-20.993,16.225-21.213,44.262-20.224,56.172c-8.546,0.816-16.505,3.061-23.771,6.702c-8.398-16.732-25.481-34.694-60.175-35.924
	c-0.899-0.026-1.79-0.045-2.67-0.052c0.407-5.685,1.908-15.338,7.123-24.985C125.887,115.81,135.281,107.746,147.82,102.929z
	 M68.144,178.744c6.824-7.627,15.859-12.677,26.988-15.093c-4.177,4.951-8.074,8.941-8.132,9c-1.933,1.972-1.901,5.137,0.07,7.07
	c1.971,1.933,5.136,1.901,7.07-0.069c0.368-0.375,9.048-9.253,14.841-17.572c4.353,9.346,8.764,15.419,13.482,18.564
	c0.853,0.568,1.816,0.841,2.769,0.841c1.615-0.001,3.201-0.782,4.165-2.228c1.532-2.298,0.911-5.402-1.387-6.934
	c-1.448-0.966-4.175-3.49-7.677-9.919c22.09,2.104,37.742,12.431,46.62,30.763c-23.884,16.959-30.838,45.503-31.438,48.154
	c-0.002,0.006-0.005,0.012-0.007,0.019c-0.937,3.748-3.84,6.763-6.11,8.633c-1.604,1.321-7.774,3.443-14.046,4.832
	c-4.879,1.079-9.191,2.405-12.879,3.756c-7.157-19.967-22.224-28.448-34.094-32.032c-5.566-1.681-10.877-2.444-15.25-2.753
	C53.049,218.946,53.446,195.173,68.144,178.744z M93.263,262.515c-0.506,0.253-0.989,0.499-1.428,0.731
	c-6.845-8.593-13.465-12.738-22.232-18.227c-2.815-1.763-5.727-3.585-9.026-5.785c-2.528-1.686-4.79-3.535-6.799-5.429
	C66.026,234.885,85.557,240.239,93.263,262.515z M21.147,233.068c6.41-1.178,11.321-2.991,14.709-5.425
	c3.627,5.732,9.832,13.684,19.173,19.911c3.419,2.279,6.526,4.225,9.267,5.94c9.601,6.011,15.396,9.639,22.104,19.176
	c1.565,2.229,4.628,2.792,6.885,1.27c0.088-0.06,9.028-6.009,24.228-9.369c4.068-0.9,13.989-3.373,18.243-6.877
	c1.07-0.881,2.057-1.789,2.959-2.722c1.154,2.716,2.645,5.475,4.53,7.835c2.458,3.076,9.254,6.661,25.076,13.227
	c1.094,0.454,1.908,0.791,2.314,0.973c14.872,6.675,22.706,13.694,26.522,18.085c0.935,1.076,2.246,2.747,3.481,4.364
	c1.919,2.511,5.578,2.834,7.898,0.688c1.574-1.456,3.208-2.987,4.219-3.986c5.065-5.006,14.893-12.777,27.939-13.917
	c13.237-1.149,26.975,4.668,40.842,17.316l-1.975,55.951l-9.053-0.616c-12.938-0.876-24.295,8.52-25.86,21.389l-1.812,14.894
	l-8.344-1.677l0.936-7.7c2.171-17.865-9.498-34.485-27.038-38.511l-38.271-8.784c-9.052-2.08-18.37,0.518-25.033,6.948
	c-7.003,6.758-9.687,16.85-7.517,26.337l0.534,2.335L122.57,367l0.866-6.772c2.289-17.903-9.232-34.531-26.799-38.679l-38.216-9.021
	c-9.196-2.172-18.702,0.496-25.427,7.134c-0.821,0.811-1.582,1.664-2.284,2.554l-19.536-87.913
	C14.018,234.096,17.554,233.727,21.147,233.068z M147.176,364.939c-1.334-5.833,0.396-11.842,4.63-16.072
	c4.233-4.23,10.241-5.955,16.076-4.618l38.271,8.784c12.589,2.891,20.907,14.738,19.349,27.56l-0.842,6.928l-75.803-15.237
	L147.176,364.939z M35.29,342.821L35.29,342.821c-1.298-5.841,0.47-11.839,4.729-16.043c4.26-4.203,10.283-5.891,16.105-4.519
	l38.215,9.021c12.571,2.968,20.815,14.867,19.178,27.679l-0.775,6.064l-75.908-15.258L35.29,342.821z M288.335,390.455l0.977-27.679
	l156.286-181.654l0.667,29.01L288.335,390.455z"/>
</svg>